<?xml version="1.0"?>
<svg xmlns="http://www.w3.org/2000/svg" xmlns:xlink="http://www.w3.org/1999/xlink" version="1.1" id="Capa_1" x="0px" y="0px" viewBox="0 0 60 60" style="enable-background:new 0 0 60 60;" xml:space="preserve" width="512px" height="512px" class=""><g><g>
	<path d="M36,49c0.552,0,1-0.447,1-1s-0.448-1-1-1H23c-0.552,0-1,0.447-1,1s0.448,1,1,1H36z" data-original="#000000" class="active-path" data-old_color="#000000" fill="#0D56A4"/>
	<path d="M41,51H18c-0.552,0-1,0.447-1,1s0.448,1,1,1h23c0.552,0,1-0.447,1-1S41.552,51,41,51z" data-original="#000000" class="active-path" data-old_color="#000000" fill="#0D56A4"/>
	<path d="M7,3C4.794,3,3,4.794,3,7s1.794,4,4,4s4-1.794,4-4S9.206,3,7,3z M7,9C5.897,9,5,8.103,5,7s0.897-2,2-2s2,0.897,2,2   S8.103,9,7,9z" data-original="#000000" class="active-path" data-old_color="#000000" fill="#0D56A4"/>
	<path d="M16,3c-2.206,0-4,1.794-4,4s1.794,4,4,4s4-1.794,4-4S18.206,3,16,3z M16,9c-1.103,0-2-0.897-2-2s0.897-2,2-2s2,0.897,2,2   S17.103,9,16,9z" data-original="#000000" class="active-path" data-old_color="#000000" fill="#0D56A4"/>
	<path d="M25,3c-2.206,0-4,1.794-4,4s1.794,4,4,4s4-1.794,4-4S27.206,3,25,3z M25,9c-1.103,0-2-0.897-2-2s0.897-2,2-2s2,0.897,2,2   S26.103,9,25,9z" data-original="#000000" class="active-path" data-old_color="#000000" fill="#0D56A4"/>
	<path d="M0,0v14v46h60V14V0H0z M2,2h56v10H2V2z M58,58H2V14h56V58z" data-original="#000000" class="active-path" data-old_color="#000000" fill="#0D56A4"/>
	<path d="M30,44c7.168,0,13-5.832,13-13s-5.832-13-13-13s-13,5.832-13,13S22.832,44,30,44z M30,20c6.065,0,11,4.935,11,11   s-4.935,11-11,11s-11-4.935-11-11S23.935,20,30,20z" data-original="#000000" class="active-path" data-old_color="#000000" fill="#0D56A4"/>
	<path d="M24.293,36.707C24.488,36.902,24.744,37,25,37s0.512-0.098,0.707-0.293L30,32.414l4.293,4.293   C34.488,36.902,34.744,37,35,37s0.512-0.098,0.707-0.293c0.391-0.391,0.391-1.023,0-1.414L31.414,31l4.293-4.293   c0.391-0.391,0.391-1.023,0-1.414s-1.023-0.391-1.414,0L30,29.586l-4.293-4.293c-0.391-0.391-1.023-0.391-1.414,0   s-0.391,1.023,0,1.414L28.586,31l-4.293,4.293C23.902,35.684,23.902,36.316,24.293,36.707z" data-original="#000000" class="active-path" data-old_color="#000000" fill="#0D56A4"/>
</g></g> </svg>
