<svg xmlns="http://www.w3.org/2000/svg" viewBox="0 0 25.735 25.733">
  <defs>
    <style>
      .cls-1 {
        fill: #1755a6;
      }
    </style>
  </defs>
  <path id="flaticon1538517641-svg" class="cls-1" d="M12.817,10.153a1.005,1.005,0,1,1-1.005,1.005A1.005,1.005,0,0,1,12.817,10.153Zm3.518,1.005a1.005,1.005,0,1,0,1.005-1.005A1.005,1.005,0,0,0,16.336,11.158Zm-9.047,0a1.005,1.005,0,1,0,1.005-1.005A1.005,1.005,0,0,0,7.288,11.158Zm17.563,9.428a3.016,3.016,0,0,1-4.264,4.266l-5.518-5.506a1,1,0,0,1-.252-.42l-1.2-3.957a1.005,1.005,0,0,1,1.23-1.261L18.9,14.832a1.006,1.006,0,0,1,.442.257ZM16.667,18.1l3.724,3.716,1.422-1.422-3.7-3.695-2.041-.565Zm6.763,3.908-.194-.194-1.422,1.422.193.193a1.005,1.005,0,1,0,1.422-1.421Zm-10-1.176c-.186.008-.374.012-.559.012a12.165,12.165,0,0,1-4.625-.895,1.007,1.007,0,0,0-.771,0L2.894,21.886l1.542-3.653a1,1,0,0,0-.175-1.059,8.523,8.523,0,0,1-2.25-5.721c0-5.206,4.87-9.442,10.857-9.442s10.857,4.236,10.857,9.442a8.275,8.275,0,0,1-.9,3.684,1.005,1.005,0,0,0,1.8.891,10.268,10.268,0,0,0,1.109-4.575C25.735,5.137,19.963,0,12.867,0S0,5.137,0,11.452a10.422,10.422,0,0,0,2.344,6.566L.079,23.384A1.005,1.005,0,0,0,1.4,24.7l6.48-2.736a14.2,14.2,0,0,0,4.991.889c.214,0,.432,0,.647-.014a1.005,1.005,0,0,0-.088-2.009Zm0,0"/>
</svg>
