<svg id="flaticon1538525486-svg" xmlns="http://www.w3.org/2000/svg" viewBox="0 0 26.529 20.268">
  <defs>
    <style>
      .cls-1 {
        fill: #1755a6;
      }
    </style>
  </defs>
  <g id="Group_1056" data-name="Group 1056">
    <g id="Group_1055" data-name="Group 1055" transform="translate(0 0)">
      <path id="Path_559" data-name="Path 559" class="cls-1" d="M35.78,35.049h0a.936.936,0,0,0-.665.276.945.945,0,0,0-.279.674V50.234a.953.953,0,0,0,.951.949c2.21.005,5.912.466,8.466,3.139v-14.9a.91.91,0,0,0-.131-.481C42.023,35.567,37.994,35.054,35.78,35.049Z" transform="translate(-31.722 -35.049)"/>
      <path id="Path_560" data-name="Path 560" class="cls-1" d="M166.167,50.233V36a.945.945,0,0,0-.279-.674.936.936,0,0,0-.665-.276h0c-2.215.005-6.243.518-8.339,3.894a.91.91,0,0,0-.13.481v14.9c2.554-2.673,6.256-3.133,8.466-3.138A.952.952,0,0,0,166.167,50.233Z" transform="translate(-142.749 -35.048)"/>
      <path id="Path_561" data-name="Path 561" class="cls-1" d="M181.745,71.8h-.688V83.7a2.429,2.429,0,0,1-2.421,2.423c-1.874,0-4.965.371-7.153,2.442a22.853,22.853,0,0,1,10.05.194.949.949,0,0,0,1.162-.925V72.75A.95.95,0,0,0,181.745,71.8Z" transform="translate(-156.164 -68.518)"/>
      <path id="Path_562" data-name="Path 562" class="cls-1" d="M1.637,83.7V71.8H.949A.95.95,0,0,0,0,72.75V87.837a.949.949,0,0,0,1.162.925,22.852,22.852,0,0,1,10.05-.194C9.023,86.5,5.933,86.13,4.058,86.126A2.429,2.429,0,0,1,1.637,83.7Z" transform="translate(0 -68.518)"/>
    </g>
  </g>
</svg>
