<svg xmlns="http://www.w3.org/2000/svg" viewBox="0 0 21.333 16">
  <defs>
    <style>
      .cls-1 {
        fill: #6086b9;
      }
    </style>
  </defs>
  <path id="envelope-solid" class="cls-1" d="M20.929,69.283a.251.251,0,0,1,.4.2V78a2,2,0,0,1-2,2H2a2,2,0,0,1-2-2V69.483a.249.249,0,0,1,.4-.2c.933.725,2.171,1.646,6.421,4.733.879.642,2.363,1.992,3.842,1.983,1.488.013,3-1.367,3.846-1.983C18.763,70.933,20,70.008,20.929,69.283ZM10.667,74.667c.967.017,2.358-1.217,3.058-1.725,5.529-4.012,5.95-4.362,7.225-5.362a1,1,0,0,0,.383-.788V66a2,2,0,0,0-2-2H2a2,2,0,0,0-2,2v.792a1,1,0,0,0,.383.787c1.275,1,1.7,1.35,7.225,5.363C8.308,73.45,9.7,74.683,10.667,74.667Z" transform="translate(0 -64)"/>
</svg>
