<svg xmlns="http://www.w3.org/2000/svg" width="32" height="17.863" viewBox="0 0 32 17.863">
  <g id="timeline" transform="translate(0 -116.364)">
    <g id="Group_1582" data-name="Group 1582" transform="translate(0 116.364)">
      <path id="Path_720" data-name="Path 720" d="M29.091,116.364a2.952,2.952,0,0,0-2.909,2.977,2.585,2.585,0,0,0,.1.759l-5.164,5.3a2.8,2.8,0,0,0-1.513,0L15.9,121.6a2.686,2.686,0,0,0,.1-.774,2.91,2.91,0,1,0-5.818,0,2.686,2.686,0,0,0,.1.774l-6.633,6.773a2.419,2.419,0,0,0-.742-.1,2.978,2.978,0,0,0,0,5.954,2.952,2.952,0,0,0,2.909-2.977,2.586,2.586,0,0,0-.1-.759l6.618-6.788a2.8,2.8,0,0,0,1.513,0l3.709,3.8a2.687,2.687,0,0,0-.1.774,2.91,2.91,0,1,0,5.818,0,2.687,2.687,0,0,0-.1-.774l5.178-5.284a2.419,2.419,0,0,0,.742.1,2.978,2.978,0,0,0,0-5.954Z" transform="translate(0 -116.364)" fill="#1755a6"/>
    </g>
  </g>
</svg>
