<svg xmlns="http://www.w3.org/2000/svg" xmlns:xlink="http://www.w3.org/1999/xlink" viewBox="0 0 18.81 14.323">
  <defs>
    <style>
      .cls-1 {
        fill: #fff;
      }

      .cls-2 {
        clip-path: url(#clip-path);
      }
    </style>
    <clipPath id="clip-path">
      <rect id="Rectangle_1486" data-name="Rectangle 1486" class="cls-1" width="18.81" height="14.323" transform="translate(0 0)"/>
    </clipPath>
  </defs>
  <g id="Mask_Group_56" data-name="Mask Group 56" class="cls-2" transform="translate(0 0)">
    <path id="share-square-solid" class="cls-1" d="M15.9,4.963l-4.028,3.8a.672.672,0,0,1-1.132-.488V6.266c-4.044.027-5.751.982-4.61,4.794a.448.448,0,0,1-.7.485A5.385,5.385,0,0,1,3.357,7.534c0-4.027,3.29-4.826,7.385-4.848V.671A.672.672,0,0,1,11.875.183l4.028,3.8A.672.672,0,0,1,15.9,4.963Zm-5.161,5.642v1.927H1.79V3.58H3.215a.335.335,0,0,0,.242-.1A5.454,5.454,0,0,1,4.884,2.423a.336.336,0,0,0-.155-.633H1.343A1.343,1.343,0,0,0,0,3.133V12.98a1.343,1.343,0,0,0,1.343,1.343H11.19a1.343,1.343,0,0,0,1.343-1.343V10.5a.336.336,0,0,0-.448-.316,2.009,2.009,0,0,1-.956.094A.336.336,0,0,0,10.742,10.605Z" transform="translate(1.348 0.001)"/>
  </g>
</svg>
