<svg id="flaticon1538517659-svg" xmlns="http://www.w3.org/2000/svg" viewBox="0 0 19.326 22.906">
  <defs>
    <style>
      .cls-1 {
        fill: #1755a6;
      }
    </style>
  </defs>
  <path id="Path_545" data-name="Path 545" class="cls-1" d="M48.363,0H30.245a.6.6,0,0,0-.6.6V22.3a.6.6,0,0,0,.6.6H48.363a.6.6,0,0,0,.6-.6V.6A.6.6,0,0,0,48.363,0Zm-.6,21.7H30.849V5.831h16.91Z" transform="translate(-29.641)"/>
  <path id="Path_546" data-name="Path 546" class="cls-1" d="M84.943,134.3H97.022a.3.3,0,0,0,.3-.3v-2.053a.3.3,0,0,0-.3-.3H84.943a.3.3,0,0,0-.3.3V134A.3.3,0,0,0,84.943,134.3Z" transform="translate(-81.319 -123.691)"/>
  <path id="Path_547" data-name="Path 547" class="cls-1" d="M84.943,223.982h5.5a.3.3,0,0,0,.3-.3v-5.737a.3.3,0,0,0-.3-.3h-5.5a.3.3,0,0,0-.3.3v5.737A.3.3,0,0,0,84.943,223.982Z" transform="translate(-81.319 -204.497)"/>
  <path id="Path_548" data-name="Path 548" class="cls-1" d="M219.17,217.641h-4.228a.3.3,0,0,0-.3.3v1.751a.3.3,0,0,0,.3.3h4.228a.3.3,0,0,0,.3-.3v-1.751A.3.3,0,0,0,219.17,217.641Z" transform="translate(-203.468 -204.497)"/>
  <path id="Path_549" data-name="Path 549" class="cls-1" d="M219.17,282.324h-4.228a.3.3,0,0,0-.3.3v1.751a.3.3,0,0,0,.3.3h4.228a.3.3,0,0,0,.3-.3v-1.751A.3.3,0,0,0,219.17,282.324Z" transform="translate(-203.468 -265.274)"/>
</svg>
