<svg xmlns="http://www.w3.org/2000/svg" xmlns:xlink="http://www.w3.org/1999/xlink" viewBox="0 0 63 63">
  <defs>
    <style>
      .cls-1 {
        fill: #1755a6;
      }

      .cls-2 {
        fill: #fff;
      }

      .cls-3 {
        filter: url(#Ellipse_293);
      }
    </style>
    <filter id="Ellipse_293" x="0" y="0" width="63" height="63" filterUnits="userSpaceOnUse">
      <feOffset dy="3" input="SourceAlpha"/>
      <feGaussianBlur stdDeviation="3" result="blur"/>
      <feFlood flood-opacity="0.161"/>
      <feComposite operator="in" in2="blur"/>
      <feComposite in="SourceGraphic"/>
    </filter>
  </defs>
  <g id="Group_1059" data-name="Group 1059" transform="translate(-335 -1403)">
    <g class="cls-3" transform="matrix(1, 0, 0, 1, 335, 1403)">
      <circle id="Ellipse_293-2" data-name="Ellipse 293" class="cls-1" cx="22.5" cy="22.5" r="22.5" transform="translate(9 6)"/>
    </g>
    <g id="flaticon1538517659-svg" transform="translate(327.36 1420)">
      <path id="Path_545" data-name="Path 545" class="cls-2" d="M48.363,0H30.245a.6.6,0,0,0-.6.6V22.3a.6.6,0,0,0,.6.6H48.363a.6.6,0,0,0,.6-.6V.6A.6.6,0,0,0,48.363,0Zm-.6,21.7H30.849V5.831h16.91Z"/>
      <path id="Path_546" data-name="Path 546" class="cls-2" d="M84.943,134.3H97.022a.3.3,0,0,0,.3-.3v-2.053a.3.3,0,0,0-.3-.3H84.943a.3.3,0,0,0-.3.3V134A.3.3,0,0,0,84.943,134.3Z" transform="translate(-51.678 -123.691)"/>
      <path id="Path_547" data-name="Path 547" class="cls-2" d="M84.943,223.982h5.5a.3.3,0,0,0,.3-.3v-5.737a.3.3,0,0,0-.3-.3h-5.5a.3.3,0,0,0-.3.3v5.737A.3.3,0,0,0,84.943,223.982Z" transform="translate(-51.678 -204.497)"/>
      <path id="Path_548" data-name="Path 548" class="cls-2" d="M219.17,217.641h-4.228a.3.3,0,0,0-.3.3v1.751a.3.3,0,0,0,.3.3h4.228a.3.3,0,0,0,.3-.3v-1.751A.3.3,0,0,0,219.17,217.641Z" transform="translate(-173.827 -204.497)"/>
      <path id="Path_549" data-name="Path 549" class="cls-2" d="M219.17,282.324h-4.228a.3.3,0,0,0-.3.3v1.751a.3.3,0,0,0,.3.3h4.228a.3.3,0,0,0,.3-.3v-1.751A.3.3,0,0,0,219.17,282.324Z" transform="translate(-173.827 -265.274)"/>
    </g>
  </g>
</svg>
