<svg id="flaticon1538525652-svg" xmlns="http://www.w3.org/2000/svg" viewBox="0 0 25.247 17.768">
  <defs>
    <style>
      .cls-1 {
        fill: #1755a6;
      }
    </style>
  </defs>
  <path id="XMLID_823_" class="cls-1" d="M24.263,47.442c-.911-1.083-2.594-1.525-5.807-1.525H6.791c-3.287,0-5,.47-5.906,1.624C0,48.665,0,50.322,0,52.615v4.371c0,4.443,1.05,6.7,6.791,6.7H18.455c2.787,0,4.331-.39,5.33-1.346,1.024-.98,1.462-2.581,1.462-5.352V52.615C25.247,50.2,25.178,48.53,24.263,47.442ZM16.208,55.4l-5.3,2.768a.814.814,0,0,1-1.192-.722V51.932a.814.814,0,0,1,1.19-.723l5.3,2.75a.814.814,0,0,1,0,1.445Z" transform="translate(0 -45.917)"/>
</svg>
