<svg xmlns="http://www.w3.org/2000/svg" xmlns:xlink="http://www.w3.org/1999/xlink" viewBox="0 0 63 63">
  <defs>
    <style>
      .cls-1 {
        fill: #1755a6;
      }

      .cls-2 {
        fill: #fff;
      }

      .cls-3 {
        filter: url(#Ellipse_295);
      }
    </style>
    <filter id="Ellipse_295" x="0" y="0" width="63" height="63" filterUnits="userSpaceOnUse">
      <feOffset dy="3" input="SourceAlpha"/>
      <feGaussianBlur stdDeviation="3" result="blur"/>
      <feFlood flood-opacity="0.161"/>
      <feComposite operator="in" in2="blur"/>
      <feComposite in="SourceGraphic"/>
    </filter>
  </defs>
  <g id="Group_1062" data-name="Group 1062" transform="translate(-487 -1403)">
    <g class="cls-3" transform="matrix(1, 0, 0, 1, 487, 1403)">
      <circle id="Ellipse_295-2" data-name="Ellipse 295" class="cls-1" cx="22.5" cy="22.5" r="22.5" transform="translate(9 6)"/>
    </g>
    <g id="flaticon1538525652-svg" transform="translate(506 1377.083)">
      <path id="XMLID_823_" class="cls-2" d="M24.263,47.442c-.911-1.083-2.594-1.525-5.807-1.525H6.791c-3.287,0-5,.47-5.906,1.624C0,48.665,0,50.322,0,52.615v4.371c0,4.443,1.05,6.7,6.791,6.7H18.455c2.787,0,4.331-.39,5.33-1.346,1.024-.98,1.462-2.581,1.462-5.352V52.615C25.247,50.2,25.178,48.53,24.263,47.442ZM16.208,55.4l-5.3,2.768a.814.814,0,0,1-1.192-.722V51.932a.814.814,0,0,1,1.19-.723l5.3,2.75a.814.814,0,0,1,0,1.445Z" transform="translate(0 0)"/>
    </g>
  </g>
</svg>
