<svg version="1.2" xmlns="http://www.w3.org/2000/svg" xmlns:xlink="http://www.w3.org/1999/xlink" overflow="visible" preserveAspectRatio="none" viewBox="0 0 514 514" width="110" height="110"><g transform="translate(1, 1)"><path d="m0 248.5h54v15h-54zm0 0" vector-effect="non-scaling-stroke" style="fill: rgb(13, 86, 164);"/><path d="m458 248.5h54v15h-54zm0 0" vector-effect="non-scaling-stroke" style="fill: rgb(13, 86, 164);"/><path d="m248.5 458h15v54h-15zm0 0" vector-effect="non-scaling-stroke" style="fill: rgb(13, 86, 164);"/><path d="m248.5 0h15v54h-15zm0 0" vector-effect="non-scaling-stroke" style="fill: rgb(13, 86, 164);"/><path d="m311 223.019531 21.78125 34.390625 12.671875-8.023437-34.453125-54.40625-32.066406 50.636719 12.671875 8.027343zm0 0" vector-effect="non-scaling-stroke" style="fill: rgb(13, 86, 164);"/><path d="m278.5 146.5v-55h-75v75.566406l-63.355469 114.640625 13.128907 7.253907 16.554687-29.957032 18.332031 15 22.839844-12.460937 22.84375 12.460937 18.328125-15 51.113281 92.496094h-184.570312l27.304687-49.410156-13.128906-7.253906-31.316406 56.664062h-15.574219v15h340v-15h-15.871094l-56.648437-89.441406-12.671875 8.023437 51.5625 81.417969h-71.945313l-101.925781-184.433594v-20.566406zm-60-40h45v25h-45zm26.296875 139.160156-12.640625 10.335938-21.15625-11.539063-21.15625 11.539063-12.640625-10.335938 33.796875-61.152344zm0 0" vector-effect="non-scaling-stroke" style="fill: rgb(13, 86, 164);"/><path d="m405.121094 71.152344c-31.195313-25.199219-68.484375-42.164063-107.824219-49.066406l-2.59375 14.773437c36.847656 6.464844 71.769531 22.355469 100.992187 45.960937zm0 0" vector-effect="non-scaling-stroke" style="fill: rgb(13, 86, 164);"/><path d="m475.136719 217.296875 14.777343-2.59375c-8.921874-50.871094-34.875-98.261719-73.070312-133.441406l-10.164062 11.035156c35.792968 32.960937 60.101562 77.351563 68.457031 125zm0 0" vector-effect="non-scaling-stroke" style="fill: rgb(13, 86, 164);"/><path d="m105.320312 92.296875-10.164062-11.035156c-38.195312 35.179687-64.148438 82.570312-73.070312 133.441406l14.777343 2.59375c8.355469-47.648437 32.664063-92.039063 68.457031-125zm0 0" vector-effect="non-scaling-stroke" style="fill: rgb(13, 86, 164);"/><path d="m217.296875 36.859375-2.59375-14.773437c-39.339844 6.902343-76.628906 23.867187-107.824219 49.066406l9.425782 11.667968c29.222656-23.605468 64.144531-39.496093 100.992187-45.960937zm0 0" vector-effect="non-scaling-stroke" style="fill: rgb(13, 86, 164);"/><path d="m406.679688 419.703125 10.164062 11.035156c38.195312-35.179687 64.148438-82.570312 73.070312-133.441406l-14.777343-2.59375c-8.355469 47.648437-32.664063 92.039063-68.457031 125zm0 0" vector-effect="non-scaling-stroke" style="fill: rgb(13, 86, 164);"/><path d="m294.703125 475.140625 2.59375 14.773437c39.339844-6.898437 76.625-23.867187 107.824219-49.0625l-9.425782-11.671874c-29.222656 23.605468-64.148437 39.496093-100.992187 45.960937zm0 0" vector-effect="non-scaling-stroke" style="fill: rgb(13, 86, 164);"/><path d="m36.863281 294.703125-14.777343 2.59375c8.921874 50.871094 34.875 98.261719 73.070312 133.441406l10.164062-11.035156c-35.792968-32.960937-60.101562-77.351563-68.457031-125zm0 0" vector-effect="non-scaling-stroke" style="fill: rgb(13, 86, 164);"/><path d="m106.878906 440.851562c31.199219 25.195313 68.484375 42.164063 107.824219 49.0625l2.59375-14.773437c-36.84375-6.460937-71.769531-22.355469-100.992187-45.960937zm0 0" vector-effect="non-scaling-stroke" style="fill: rgb(13, 86, 164);"/><path d="m216 321.5h50v15h-50zm0 0" vector-effect="non-scaling-stroke" style="fill: rgb(13, 86, 164);"/><path d="m186 321.5h15v15h-15zm0 0" vector-effect="non-scaling-stroke" style="fill: rgb(13, 86, 164);"/><path d="m156 321.5h15v15h-15zm0 0" vector-effect="non-scaling-stroke" style="fill: rgb(13, 86, 164);"/></g></svg>