<svg version="1.2" xmlns="http://www.w3.org/2000/svg" xmlns:xlink="http://www.w3.org/1999/xlink" overflow="visible" preserveAspectRatio="none" viewBox="-1 0 410 410.7364196777344" width="100" height="100"><g transform="translate(1, 1)"><path d="m150.554688 71.027344c12.359374 0 22.414062-10.058594 22.414062-22.417969s-10.054688-22.417969-22.414062-22.417969c-12.359376 0-22.414063 10.058594-22.414063 22.417969s10.054687 22.417969 22.414063 22.417969zm0-31.179688c4.832031 0 8.757812 3.929688 8.757812 8.761719 0 4.835937-3.925781 8.765625-8.757812 8.765625-4.832032 0-8.761719-3.929688-8.761719-8.765625 0-4.832031 3.929687-8.761719 8.761719-8.761719zm0 0" vector-effect="non-scaling-stroke" style="fill: rgb(13, 86, 164);"/><path d="m239.300781 326.566406c-12.359375 0-22.414062 10.058594-22.414062 22.417969s10.054687 22.417969 22.414062 22.417969 22.414063-10.058594 22.414063-22.417969-10.054688-22.417969-22.414063-22.417969zm0 31.179688c-4.832031 0-8.761719-3.929688-8.761719-8.761719 0-4.835937 3.929688-8.765625 8.761719-8.765625s8.761719 3.929688 8.761719 8.765625c0 4.832031-3.929688 8.761719-8.761719 8.761719zm0 0" vector-effect="non-scaling-stroke" style="fill: rgb(13, 86, 164);"/><path d="m72.367188 28.128906c0 5.832032-4.726563 10.558594-10.558594 10.558594-5.832032 0-10.558594-4.726562-10.558594-10.558594 0-5.832031 4.726562-10.558594 10.558594-10.558594 5.832031 0 10.558594 4.726563 10.558594 10.558594zm0 0" vector-effect="non-scaling-stroke" style="fill: rgb(13, 86, 164);"/><path d="m359.085938 342.15625c0 5.832031-4.726563 10.558594-10.558594 10.558594-5.832032 0-10.558594-4.726563-10.558594-10.558594s4.726562-10.558594 10.558594-10.558594c5.832031 0 10.558594 4.726563 10.558594 10.558594zm0 0" vector-effect="non-scaling-stroke" style="fill: rgb(13, 86, 164);"/><path d="m385.902344 226.277344c-2.667969-2.667969-6.988282-2.667969-9.652344 0l-7.242188 7.238281-7.238281-7.238281c-2.664062-2.667969-6.988281-2.667969-9.652343 0-2.667969 2.664062-2.667969 6.988281 0 9.652344l7.238281 7.238281-7.238281 7.242187c-2.667969 2.664063-2.667969 6.984375 0 9.652344 1.332031 1.332031 3.078124 2 4.824218 2s3.496094-.667969 4.828125-2l7.238281-7.242188 7.242188 7.242188c1.332031 1.332031 3.078125 2 4.824219 2 1.746093 0 3.496093-.667969 4.828125-2 2.664062-2.667969 2.664062-6.988281 0-9.652344l-7.242188-7.242187 7.242188-7.238281c2.664062-2.664063 2.664062-6.988282 0-9.652344zm0 0" vector-effect="non-scaling-stroke" style="fill: rgb(13, 86, 164);"/><path d="m24.433594 184.96875c1.335937 1.335938 3.082031 2 4.828125 2 1.746093 0 3.492187-.664062 4.824219-2l7.242187-7.238281 7.238281 7.238281c1.332032 1.335938 3.082032 2 4.828125 2 1.746094 0 3.492188-.664062 4.824219-2 2.667969-2.664062 2.667969-6.984375 0-9.652344l-7.238281-7.238281 7.238281-7.238281c2.667969-2.667969 2.667969-6.988282 0-9.65625-2.664062-2.664063-6.984375-2.664063-9.652344 0l-7.238281 7.242187-7.242187-7.242187c-2.664063-2.664063-6.984376-2.664063-9.652344 0-2.664063 2.667968-2.664063 6.988281 0 9.65625l7.242187 7.238281-7.242187 7.238281c-2.667969 2.667969-2.667969 6.984375 0 9.652344zm0 0" vector-effect="non-scaling-stroke" style="fill: rgb(13, 86, 164);"/><path d="m404.855469 80.699219-78.78125-78.777344c-2.558594-2.5625-7.09375-2.5625-9.652344 0l-109.414063 109.414063c-2.667968 2.664062-2.667968 6.988281 0 9.652343l8.304688 8.304688-78.332031 78.328125c-1.28125 1.28125-2 3.019531-2 4.828125 0 1.808593.71875 3.546875 2 4.828125l3.925781 3.925781-108.964844 108.96875-16.953125 16.953125-2.96875-2.96875c-2.664062-2.664062-6.984375-2.664062-9.652343 0-2.664063 2.664062-2.664063 6.988281 0 9.652344l7.292968 7.292968c.152344.191407.222656.425782.402344.605469l35.011719 35.011719c.179687.179688.421875.253906.617187.410156l9.605469 9.605469c1.332031 1.335937 3.082031 2.003906 4.824219 2.003906 1.746094 0 3.496094-.667969 4.828125-2.003906 2.664062-2.664063 2.664062-6.984375 0-9.652344l-5.292969-5.292969 16.953125-16.953124 108.96875-108.964844 3.925781 3.925781c1.332032 1.332031 3.082032 2 4.824219 2 1.746094 0 3.496094-.667969 4.828125-2l78.332031-78.328125 8.300781 8.300781c1.332032 1.332031 3.078126 2 4.824219 2 1.746094 0 3.496094-.667969 4.828125-2l87.535156-87.535156 21.878907-21.882813c2.667969-2.664062 2.667969-6.984374 0-9.652343zm-380.210938 276.078125 12.125-12.125 25.359375 25.359375-12.125 12.125zm47.136719 3.578125-25.359375-25.359375 104.140625-104.140625 25.359375 25.359375zm122.546875-105.039063-42.867187-42.867187 73.503906-73.5 42.867187 42.867187zm96.285156-70.027344-8.289062-8.292968c-.003907-.003906-.003907-.007813-.007813-.007813-.003906-.003906-.007812-.003906-.011718-.007812l-52.503907-52.503907c-.003906-.003906-.003906-.007812-.007812-.011718 0-.003906-.003907-.003906-.007813-.007813l-8.296875-8.292969 77.878907-77.882812 69.128906 69.128906zm87.535157-87.53125-69.128907-69.128906 12.226563-12.230468 69.128906 69.128906zm0 0" vector-effect="non-scaling-stroke" style="fill: rgb(13, 86, 164);"/></g></svg>