<svg id="Layer_1" data-name="Layer 1" xmlns="http://www.w3.org/2000/svg" viewBox="0 0 11.73 11.73"><defs><style>.cls-1{fill:#fff;}</style></defs><path id="search" class="cls-1" d="M8.25,5.11A3.16,3.16,0,0,1,5.1,8.27a3.07,3.07,0,0,1-2.24-.9,3,3,0,0,1-.92-2.26,3,3,0,0,1,.92-2.23A3.1,3.1,0,0,1,5.1,2a3,3,0,0,1,2.25.93,3,3,0,0,1,.93,2.23h0ZM11.86,11a.86.86,0,0,0-.26-.64L9.18,7.92a4.78,4.78,0,0,0,.88-2.81,4.93,4.93,0,0,0-.39-1.93A4.88,4.88,0,0,0,7,.54a5,5,0,0,0-3.86,0A4.85,4.85,0,0,0,.53,3.18,5,5,0,0,0,.53,7,4.82,4.82,0,0,0,3.17,9.68a4.73,4.73,0,0,0,1.93.4A4.9,4.9,0,0,0,7.91,9.2l2.42,2.41a.8.8,0,0,0,.63.27.9.9,0,0,0,.9-.9Z" transform="translate(-0.14 -0.15)"/></svg>