<svg version="1.2" xmlns="http://www.w3.org/2000/svg" xmlns:xlink="http://www.w3.org/1999/xlink" overflow="visible" preserveAspectRatio="none" viewBox="0 0 514 514" width="72" height="72"><g transform="translate(1, 1)"><g><path fill="#0D56A4" class="active-path_1567642551235" d="m383.808 385.301c2.56 0 5.118-.977 7.071-2.929l14.92-14.92 14.92 14.92c3.907 3.905 10.236 3.904 14.143 0 3.905-3.905 3.905-10.237 0-14.143l-14.92-14.92 14.92-14.92c3.905-3.905 3.905-10.237 0-14.143-3.906-3.904-10.236-3.904-14.143 0l-14.92 14.92-14.92-14.92c-3.906-3.904-10.236-3.904-14.143 0-3.905 3.905-3.905 10.237 0 14.143l14.92 14.92-14.92 14.92c-6.319 6.32-1.757 17.072 7.072 17.072z" vector-effect="non-scaling-stroke"/><path fill="#0D56A4" class="active-path_1567642551235" d="m481.771 353.311c0-41.892-34.081-75.973-75.973-75.973-20.45 0-39.656 8.078-53.865 22.413-12.714-6.802-26.345-12.445-40.508-16.785-9.904-3.034-17.065-12.522-17.065-23.073v-12.023c23-12.18 40.996-32.919 51.419-58.196 12.507-4.27 21.655-19.511 24.692-29.672 4.448-14.881-2.447-30.064-14.993-37.07-4.082-60.795-49.872-103.34-108.01-103.34-57.329 0-103.308 41.524-107.923 102.186-14.031 6.424-21.921 22.481-17.217 38.225 3.152 10.549 12.958 26.595 26.869 30.045 10.448 25.11 28.164 45.7 51.164 57.823v12.022c0 10.551-7.058 20.086-16.962 23.12-91.481 28.023-150.45 105.534-150.45 202.429 0 5.522 4.477 10.187 10 10.187h406.851c5.545 0 10.374-4.783 9.979-11.024-.063-24.104-3.643-47.236-10.632-68.904 20.309-14.113 32.624-37.312 32.624-62.39zm-75.972-55.973c30.863 0 55.973 25.109 55.973 55.973 0 30.978-25.114 55.97-55.977 55.973-30.861-.002-55.969-25.111-55.969-55.973 0-30.774 24.936-55.973 55.973-55.973zm-352.619 178.291c3.835-83 55.32-148.614 136.077-173.354 18.52-5.674 31.104-22.817 31.104-42.383v-18.193c0-3.901-2.409-7.447-5.952-9.081-22.05-10.169-39.949-30.354-48.864-55.379-1.604-4.501-6.17-7.243-10.894-6.534-.05.007-.102.011-.157.011-3.413 0-10.636-8.285-13.073-16.44-1.897-6.346 1.702-13.024 8.053-14.922l2.57-.768c4.159-1.242 7.042-5.024 7.137-9.364 1.133-51.936 38.261-89.63 88.283-89.63 50.292 0 87.422 37.95 88.289 90.237.073 4.361 2.963 8.174 7.145 9.418.177.092 4.825 1.019 7.46 5.898 1.521 2.818 1.84 6.061.923 9.129-2.707 9.056-9.698 16.547-12.11 16.547-4.373-.234-8.493 2.462-9.98 6.613-8.936 24.933-26.79 45.046-48.771 55.184-3.543 1.634-6.057 5.18-6.057 9.081v18.193c0 19.565 12.688 36.534 31.207 42.208 11.837 3.627 23.439 8.244 34.136 13.749-6.517 11.334-9.877 24.382-9.877 37.508 0 41.892 34.081 76.02 75.973 76.02 8.628 0 17.207-1.388 25.3-4.238 4.848 15.961 7.681 32.49 8.46 50.49z" vector-effect="non-scaling-stroke"/></g></g></svg>